**ABCDEFGHIJKLMNOPQRSTUVWXYZabcdefghijklmnopqrstuvwxyz**************************
**PARASOLID !"#$%&'()*+,-./:;<=>?@[\]^_`{|}~0123456789**************************
**PART1;
MC=unknown;
MC_MODEL=unknown;
MC_ID=unknown;
OS=Windows;
OS_RELEASE=unknown;
FRU=Parasolid Version 30.0, build 297, 11/24/2017;
APPL=ANSYS DesignModeler;
SITE=Canonsburg PA;
USER=unknown;
FORMAT=text;
GUISE=transmit;
KEY=FSI;
FILE=FSI.x_t;
DATE=01/11/20 07:38:51;
**PART2;
SCH=SCH_3000297_30000;
USFLD_SIZE=0;
**PART3;
**END_OF_HEADER*****************************************************************
T51 : TRANSMIT FILE created by modeller version 300029717 SCH_2800000_280020 176
 2 1 2 0 0 0 2 3 12 2 268 4 5 0 0 0 0 1e3 1e-8 0 6 7 1 0 1 1 8 9 10 11 12 13 14
 0 0 0 0 0 0 0 12 3 128 15 16 0 0 0 0 1e3 1e-8 0 17 0 1 0 1 1 18 19 20 21 22 23
 24 0 0 0 0 0 0 0 81 2 15 120 25 3 26 0 27 28 29 0 70 16 0 4 T3 0 0 2 20 1 30 30
 13 18 36 0 3 0 31 0 0 32 0 50 19 100 0 31 33 0 0 +-.5 .01 -.0994987437106621 0
 693889390390723e-29 1 0 -1 693889390390723e-29 30 20 104 0 23 34 0 0 +-.5 -.01
 -.099498743710662 1 0 0 29 21 81 0 35 36 0 0 .01 -.0994987437106621 19 22 35 0
 3 32 0 37 V0 16 23 88 38 ?39 0 40 20 0 0 3 18 24 29 41 42 0 43 44 ?3 81 2 41 12
7 25 24 0 0 45 46 47 48 17 42 0 49 50 51 24 52 53 0 54 -18 43 25 55 56 24 57 58
 ?3 29 44 31 0 24 58 59 -.5 .01 -.0994987437106621 29 58 27 0 43 60 44 -.5 .01 -
.999498743710664 29 59 84 0 61 44 62 0 -.01 -.099498743710662 18 61 74 28 39 63
 0 59 ?3 29 62 83 0 63 59 36 0 -.00999999999999979 -.999498743710662 18 63 72 64
 65 66 61 62 ?3 29 36 82 0 66 62 21 0 .01 -.999498743710664 18 66 70 67 68 35 63
 36 ?3 81 2 67 123 25 66 0 0 64 69 70 71 17 68 0 72 73 74 66 56 75 0 76 +18 35 6
8 69 52 77 66 21 ?3 81 2 69 124 25 35 0 0 67 55 78 79 17 52 0 80 76 54 35 42 53
 0 81 +18 77 17 46 82 57 35 83 ?3 81 2 46 128 25 77 0 0 41 0 84 85 17 82 0 86 87
 88 77 39 23 0 89 -18 57 21 45 90 43 77 60 ?3 29 83 19 0 77 0 60 -.5 -.01 -.0994
98743710662 29 60 23 0 57 83 58 -.5 -.00999999999999979 -.999498743710662 81 2 4
5 126 25 57 0 0 55 41 91 92 17 90 0 72 74 73 57 65 40 0 87 -15 72 91 0 73 93 0 1
7 74 0 72 68 90 43 94 95 0 96 +17 73 0 72 90 68 63 97 98 0 99 -17 65 0 86 88 87
 63 90 40 0 73 +16 40 87 100 ?65 23 75 34 0 0 3 17 87 0 86 65 82 57 89 101 0 94
 +15 86 93 0 88 102 0 17 89 0 103 104 94 77 87 101 0 50 -16 101 8 105 ?87 95 106
 107 0 0 3 17 94 0 103 89 96 57 74 95 0 0 -15 103 4 0 104 108 0 17 96 0 103 94 1
04 43 54 109 0 0 -16 95 11 110 ?74 109 101 111 0 0 3 81 2 110 13 25 95 0 0 105 1
12 113 114 16 109 14 112 ?54 53 95 115 0 0 3 30 111 12 0 95 107 115 0 +-.5 0 -.9
99498743710664 0 1 0 30 107 9 0 101 116 111 0 --.5 -.00999999999999979 -.9994987
43710662 0 -225514051876985e-30 1 30 115 15 0 109 111 117 0 +-.5 .01 -.999498743
710664 0 0 1 30 117 80 0 118 115 119 0 +0 .01 -.0994987437106621 0 -1 6938893903
90723e-29 16 118 65 120 ?121 122 0 117 0 0 3 30 119 79 0 122 117 123 0 -0 -.0099
9999999999979 -.999498743710662 0 -225514051876985e-30 1 16 122 62 124 ?99 98 11
8 119 0 0 3 30 123 78 0 98 119 125 0 +0 0 -.999498743710664 0 1 0 16 98 59 126 ?
97 127 122 123 0 0 3 30 125 77 0 127 123 128 0 +0 .01 -.999498743710664 0 0 1 16
 127 56 129 ?81 106 98 125 0 0 3 30 128 101 0 53 125 130 0 +-.5 .01 -.0994987437
106621 1 0 0 16 53 85 27 ?52 75 109 128 0 0 3 30 130 102 0 75 128 34 0 +-.5 .01
 -.999498743710664 1 0 0 16 75 86 131 ?68 40 53 130 0 0 3 30 34 103 0 40 130 20
 0 +-.5 -.00999999999999979 -.999498743710662 1 0 0 81 2 131 118 25 75 0 0 100 2
7 132 133 80 2 25 134 135 9000 0 0 0 0 3 6 0 0 0 FFTFTFTTTFFFTF3 1 81 2 100 117
 25 40 0 0 38 131 136 137 81 2 27 119 25 53 0 0 131 15 138 139 84 26 132 F6809(X
6807)..F6809(X6765)82 1 133 6828 84 26 138 F6809(X6807)..F6809(X6767)82 1 139 68
27 81 2 38 116 25 23 0 0 140 100 141 142 84 26 136 F6809(X6765)..F6809(X6808)82
 1 137 6829 81 2 140 115 25 31 0 0 143 38 144 145 84 26 141 F6809(X6808)..F6809(
X6767)82 1 142 6830 14 31 96 140 ?102 0 49 18 19 +0 0 102 0 37 81 2 143 114 25 1
02 0 0 146 140 147 148 84 12 144 F6809(X6767)82 1 145 6810 14 102 94 143 ?93 31
 86 18 33 +0 0 93 31 37 81 2 146 113 25 93 0 0 149 143 150 151 84 12 147 F6809(X
6808)82 1 148 6820 14 93 92 146 ?152 102 72 18 153 +0 0 152 102 37 81 2 149 112
 25 152 0 0 120 146 154 155 84 12 150 F6809(X6765)82 1 151 6819 14 152 90 149 ?1
08 93 80 18 156 +0 0 108 93 37 81 2 120 67 25 118 0 0 124 149 157 158 84 12 154
 F6809(X6807)82 1 155 6818 81 2 124 64 25 122 0 0 126 120 159 160 84 33 157 F680
9.Cap1b.(X6764)..F6809(X6767)82 1 158 6812 81 2 126 61 25 98 0 0 129 124 161 162
 84 33 159 F6809.Cap1b.(X6764)..F6809(X6808)82 1 160 6825 81 2 129 58 25 127 0 0
 163 126 164 165 84 33 161 F6809.Cap1b.(X6764)..F6809(X6765)82 1 162 6826 81 2 1
63 54 25 166 0 0 112 129 167 168 84 33 164 F6809.Cap1b.(X6764)..F6809(X6807)82 1
 165 6824 14 166 52 163 ?0 108 169 18 170 -0 0 0 108 37 81 2 112 16 25 109 0 0 1
10 163 171 172 84 19 167 F6809.Cap1b.(X6764)82 1 168 6817 84 33 171 F6809.Cap1t.
(X6764)..F6809(X6807)82 1 172 6821 14 108 1 173 ?166 152 103 18 174 +0 0 166 152
 37 15 169 55 0 121 166 0 50 170 76 0 166 174 156 0 +0 0 0 -1 0 0 0 0 1 13 37 10
5 0 0 0 0 0 0 22 31 50 174 2 0 108 0 170 0 +-.5 0 0 -1 0 0 0 0 1 50 156 97 0 152
 170 153 0 +-.5 .01 -.999498743710664 0 1 0 0 0 1 50 153 98 0 93 156 33 0 +-.5 0
 -.999498743710664 0 0 -1 -1 0 0 50 33 99 0 102 153 19 0 +-.5 -.0099999999999997
9 -.999498743710662 0 -1 -225514051876985e-30 0 225514051876985e-30 -1 17 121 0
 169 99 81 61 51 118 0 0 +17 99 0 169 97 121 63 88 122 0 0 +17 81 0 169 121 97 3
5 76 127 0 51 +17 51 0 49 42 39 35 121 118 0 0 -15 49 95 0 51 31 0 17 39 0 49 51
 50 61 82 23 0 88 +17 50 0 49 39 42 77 104 106 0 0 +17 88 0 86 82 65 61 99 122 0
 121 -17 104 0 103 96 89 24 50 106 0 0 -16 106 5 175 ?50 101 127 116 0 0 3 81 2
 175 7 25 106 0 0 173 105 176 177 30 116 6 0 106 0 107 0 +-.5 .01 -.099498743710
6621 0 -1 693889390390723e-29 81 2 173 3 25 108 0 0 0 175 178 179 81 2 105 10 25
 101 0 0 175 110 180 181 84 33 176 F6809.Cap1t.(X6764)..F6809(X6767)82 1 177 681
1 84 33 180 F6809.Cap1t.(X6764)..F6809(X6808)82 1 181 6822 84 19 178 F6809.Cap1t
.(X6764)82 1 179 6816 17 97 0 169 81 99 66 73 98 0 0 +17 76 0 80 56 52 66 81 127
 0 97 -15 80 89 0 76 152 0 17 56 0 80 54 76 43 68 75 0 74 -17 54 0 80 52 56 24 9
6 109 0 104 +79 18 135 AnsysParaAttrDef.384 33 113 F6809.Cap1t.(X6764)..F6809(X6
765)82 1 114 6823 81 2 55 125 25 43 0 0 69 45 182 183 84 10 91 F6809.Vtx682 1 92
 6833 84 10 182 F6809.Vtx582 1 183 6832 84 10 84 F6809.Vtx882 1 85 6834 84 10 78
 F6809.Vtx482 1 79 6835 81 2 64 122 25 63 0 0 28 67 184 185 84 10 70 F6809.Vtx38
2 1 71 6836 81 2 28 121 25 61 0 0 15 64 186 187 84 10 184 F6809.Vtx282 1 185 683
7 84 10 186 F6809.Vtx182 1 187 6838 84 10 47 F6809.Vtx782 1 48 6831 19 32 106 0
 3 0 22 18 S0 74 20 30 2 0 0 46 26 0 0 0 0 0 0 0 0 0 0 0 0 0 0 0 0 0 0 81 1 26 3
3 188 3 0 15 0 0 189 80 1 188 190 191 9000 0 0 0 0 3 6 0 0 0 FFTFFFFFTFFFFF1 82
 1 189 105 79 13 191 BodyAttrDef.484 7 29 F6809.B81 1 4 268 192 2 193 0 0 0 194
 70 5 0 4 T2 0 0 3 20 1 195 195 13 8 72 0 2 0 196 0 0 197 0 50 9 204 0 198 199 0
 0 +-.5 -.00999999999999979 -.999498743710662 0 1 225514051876985e-30 0 -2255140
51876985e-30 1 30 10 214 0 200 201 0 0 +-.5 -.00999999999999979 -.99949874371066
2 1 0 0 29 11 161 0 202 203 0 0 -.6425 -6.03 19 12 71 0 2 197 0 204 V0 16 13 173
 205 ?206 0 207 208 0 0 2 18 14 65 209 210 0 211 212 ?2 81 2 209 267 25 14 0 0 2
13 0 214 215 17 210 0 216 217 218 14 219 220 0 221 -18 211 61 222 223 14 224 225
 ?2 29 212 67 0 14 225 226 -.5 -.6425 -6.03 29 225 63 0 211 227 212 -.5 -.6425 1
.93 29 226 169 0 228 212 229 0 -.00999999999999979 -.999498743710662 18 228 149
 230 231 232 0 226 ?2 29 229 168 0 232 226 233 0 -.01 -.099498743710662 18 232 1
47 234 235 236 228 229 ?2 29 233 167 0 236 229 237 0 .01 -.0994987437106621 18 2
36 145 238 239 240 232 233 ?2 29 237 166 0 240 233 241 0 .01 -.999498743710664 1
8 240 143 242 243 244 236 237 ?2 29 241 164 0 244 237 245 0 .6425 -6.03 18 244 1
39 246 206 247 240 241 ?2 29 245 163 0 247 241 203 0 .6425 1.93 18 247 137 248 2
49 250 244 245 ?2 29 203 162 0 250 245 11 0 -.6425 1.93 18 250 135 251 252 202 2
47 203 ?2 81 2 251 260 25 250 0 0 248 222 253 254 17 252 0 255 256 257 250 223 2
58 0 259 +18 202 133 260 219 261 250 11 ?2 81 2 260 254 25 202 0 0 246 262 263 2
64 17 219 0 265 259 221 202 210 220 0 266 +18 261 33 213 267 268 202 269 ?2 81 2
 213 266 25 261 0 0 270 209 271 272 17 267 0 273 274 275 261 276 200 0 277 -18 2
68 37 270 278 279 261 280 ?2 29 269 35 0 261 0 280 -.5 -.00999999999999979 -.999
498743710662 29 280 39 0 268 269 281 -.5 -.01 -.099498743710662 29 281 43 0 279
 280 282 -.5 .01 -.0994987437106621 18 279 41 283 284 285 268 281 ?2 29 282 47 0
 285 281 286 -.5 .01 -.999498743710664 18 285 45 287 288 289 279 282 ?2 29 286 5
5 0 289 282 227 -.5 .6425 -6.03 18 289 53 262 290 224 285 286 ?2 29 227 59 0 224
 286 225 -.5 .6425 1.93 18 224 57 291 292 211 289 227 ?2 81 2 291 262 25 224 0 0
 222 287 293 294 17 292 0 255 257 256 224 249 207 0 295 -15 255 181 0 256 296 0
 17 257 0 255 252 292 211 297 298 0 299 -17 256 0 255 292 252 247 300 301 0 302
 +17 249 0 303 304 295 247 292 207 0 256 +16 207 172 305 ?249 13 258 306 0 0 2 1
7 295 0 303 249 290 224 307 308 0 297 -15 303 183 0 304 309 0 17 290 0 303 295 3
04 289 206 13 0 307 -17 307 0 310 311 297 289 295 308 0 217 +16 308 24 312 ?307
 298 313 314 0 0 2 17 297 0 310 307 299 224 257 298 0 0 +15 310 5 0 311 315 0 17
 299 0 310 297 311 211 221 316 0 0 +16 298 27 317 ?297 316 308 318 0 0 2 81 2 31
7 29 25 298 0 0 312 319 320 321 16 316 30 319 ?299 322 298 323 0 0 2 30 318 28 0
 298 314 323 0 +-.5 -.6425 1.93 0 1 0 30 314 25 0 308 324 318 0 +-.5 .6425 1.93
 0 1115802034799152e-31 -1 30 323 31 0 316 318 325 0 +-.5 -.6425 -6.03 0 0 1 30
 325 159 0 326 323 327 0 +0 -.00999999999999979 -.999498743710662 0 -22551405187
6985e-30 1 16 326 127 328 ?329 330 0 325 0 0 2 31 327 158 0 330 325 331 0 +0 0 0
 1 0 0 0 1 0 .1 16 330 124 332 ?333 334 326 327 0 0 2 30 331 157 0 334 327 335 0
 +0 .01 -.999498743710664 0 0 1 16 334 121 336 ?337 338 330 331 0 0 2 30 335 156
 0 338 331 339 0 +0 0 -.999498743710664 0 1 0 16 338 118 340 ?341 342 334 335 0
 0 2 30 339 155 0 342 335 343 0 +0 -.6425 -6.03 0 1 0 16 342 115 344 ?345 346 33
8 339 0 0 2 30 343 154 0 346 339 347 0 +0 .6425 1.93 0 1115802034799152e-31 -1 1
6 346 112 348 ?304 301 342 343 0 0 2 30 347 153 0 301 343 349 0 +0 -.6425 1.93 0
 1 0 16 301 109 350 ?256 351 346 347 0 0 2 30 349 152 0 351 347 352 0 +0 -.6425
 -6.03 0 0 1 16 351 106 353 ?259 354 301 349 0 0 2 30 352 206 0 220 349 355 0 +-
.5 -.6425 -6.03 1 0 0 16 220 170 356 ?219 258 200 352 0 0 2 30 355 207 0 258 352
 306 0 +-.5 -.6425 1.93 1 0 0 16 258 171 357 ?252 207 220 355 0 0 2 30 306 208 0
 207 355 208 0 +-.5 .6425 1.93 1 0 0 30 208 209 0 13 306 358 0 +-.5 .6425 -6.03
 1 0 0 30 358 211 0 322 208 359 0 +-.5 .01 -.999498743710664 1 0 0 16 322 175 36
0 ?243 361 316 358 0 0 2 30 359 212 0 361 358 201 0 +-.5 .01 -.0994987437106621
 1 0 0 16 361 176 362 ?239 363 322 359 0 0 2 30 201 213 0 363 359 10 0 +-.5 -.01
 -.099498743710662 1 0 0 16 363 177 364 ?235 200 361 201 0 0 2 81 2 364 241 25 3
63 0 0 365 362 366 367 17 235 0 273 275 274 232 278 363 0 333 +16 200 178 365 ?2
76 220 363 10 0 0 2 81 2 365 240 25 200 0 0 356 364 368 369 17 276 0 370 341 371
 228 267 200 0 275 +15 370 187 0 341 372 0 17 341 0 370 373 276 240 231 338 0 37
4 +17 371 0 370 276 373 261 288 354 0 0 -17 275 0 273 267 235 228 329 326 0 0 -1
5 273 193 0 275 198 0 17 329 0 375 376 231 232 275 326 0 0 +15 375 104 0 231 377
 378 17 376 0 375 374 329 236 333 330 0 0 -17 231 0 375 329 374 228 341 338 0 27
6 -17 374 0 375 231 376 240 337 334 0 0 -17 337 0 379 284 243 236 374 334 0 376
 +15 379 189 0 337 380 0 17 284 0 379 381 337 279 239 361 0 382 -17 243 0 379 33
7 381 240 373 322 0 341 +17 381 0 379 243 284 285 383 384 0 0 -17 373 0 370 371
 341 285 243 322 0 381 -17 383 0 385 386 288 279 381 384 0 0 +16 384 15 387 ?383
 313 388 389 0 0 2 81 2 387 17 25 384 0 0 390 391 392 393 16 313 21 391 ?217 308
 384 324 0 0 2 16 388 12 390 ?386 384 394 395 0 0 2 30 389 16 0 384 395 324 0 +-
.5 .01 -.999498743710664 0 0 1 31 395 13 0 388 396 389 0 +-.5 0 0 1 0 0 0 1 0 .1
 30 324 22 0 313 389 314 0 +-.5 -.6425 -6.03 0 1 0 30 396 10 0 394 397 395 0 +-.
5 -.00999999999999979 -.999498743710662 0 -225514051876985e-30 1 16 394 9 398 ?2
74 388 354 396 0 0 2 30 397 7 0 354 0 396 0 +-.5 -.00999999999999979 -.999498743
710662 0 1 -1332267629550216e-28 16 354 6 399 ?288 394 351 397 0 0 2 81 2 399 25
0 25 354 0 0 400 340 401 402 17 288 0 385 383 277 285 371 354 0 373 +15 385 4 0
 288 315 310 17 277 0 385 288 386 261 274 394 0 371 -17 386 0 385 277 383 268 38
2 388 0 0 +17 274 0 273 235 267 268 277 394 0 386 +17 382 0 403 239 278 279 386
 388 0 383 -15 403 191 0 333 404 0 17 239 0 403 333 382 236 284 361 0 337 +17 27
8 0 403 382 333 268 235 363 0 274 -17 333 0 403 278 239 232 376 330 0 329 +14 40
4 192 405 ?380 198 403 8 199 -0 0 380 198 204 81 2 405 230 25 404 0 0 406 407 40
8 409 14 380 190 406 ?372 404 379 8 410 -0 0 372 404 204 14 198 194 407 ?404 296
 273 8 9 +0 0 404 296 204 51 199 203 0 404 410 9 0 +-.5 0 0 1 0 0 .1 0 0 -1 13 2
04 215 0 0 0 0 0 0 12 196 14 196 186 411 ?309 0 216 8 412 +0 0 309 0 204 81 2 41
1 235 25 196 0 0 413 205 414 415 14 309 184 413 ?296 196 303 8 416 -0 0 296 196
 204 15 216 185 0 218 196 0 50 412 200 0 196 416 417 0 +-.5 -.6425 -6.03 0 0 -1
 -1 0 0 50 416 199 0 309 418 412 0 +-.5 .6425 1.93 0 -1 -1115802034799152e-31 0
 1115802034799152e-31 -1 50 417 201 0 372 412 410 0 +-.5 0 -.999498743710664 0 0
 -1 -1 0 0 14 372 188 400 ?419 380 370 8 417 -0 0 419 380 204 50 410 202 0 380 4
17 199 0 +-.5 .01 -.999498743710664 0 1 0 0 0 1 81 2 400 249 25 372 0 0 193 399
 420 421 14 419 180 422 ?315 372 265 8 423 -0 0 315 372 204 81 2 422 227 25 419
 0 0 328 406 424 425 14 315 1 426 ?377 419 385 8 427 +0 0 377 419 204 15 265 179
 0 259 419 0 50 423 197 0 419 428 418 0 +-.5 -.6425 -6.03 0 1 0 0 0 1 50 428 151
 0 377 427 423 0 +0 0 0 -1 0 0 0 -1 0 50 418 198 0 296 423 416 0 +-.5 -.6425 1.9
3 0 0 -1 -1 0 0 14 296 182 429 ?198 309 255 8 418 -0 0 198 309 204 81 2 429 233
 25 296 0 0 407 413 430 431 81 2 407 231 25 198 0 0 405 429 432 433 81 2 413 234
 25 309 0 0 429 411 434 435 84 12 430 F3337(X3314)82 1 431 3344 84 12 434 F3337(
X3315)82 1 435 3345 84 12 432 F3337(X3323)82 1 433 3349 14 377 101 436 ?0 315 37
5 8 428 -0 0 0 315 204 50 427 2 0 315 0 428 0 +-.5 0 0 -1 0 0 0 -1 0 81 2 436 10
3 25 377 0 0 319 353 437 438 81 2 319 32 25 316 0 0 317 436 439 440 81 2 353 108
 25 351 0 0 436 350 441 442 84 19 437 F3337.Cap1b.(X3311)82 1 438 3341 81 2 350
 111 25 301 0 0 353 348 443 444 84 33 441 F3337.Cap1b.(X3311)..F3337(X3313)82 1
 442 3365 81 2 348 114 25 346 0 0 350 344 445 446 84 33 443 F3337.Cap1b.(X3311).
.F3337(X3314)82 1 444 3364 81 2 344 117 25 342 0 0 348 336 447 448 84 33 445 F33
37.Cap1b.(X3311)..F3337(X3315)82 1 446 3363 81 2 336 123 25 334 0 0 344 332 449
 450 84 33 447 F3337.Cap1b.(X3311)..F3337(X6051)82 1 448 6056 81 2 332 126 25 33
0 0 0 336 328 451 452 84 33 449 F3337.Cap1b.(X3311)..F3337(X3321)82 1 450 3361 8
1 2 328 129 25 326 0 0 332 422 453 454 84 33 451 F3337.Cap1b.(X3311)..F3337(X332
2)82 1 452 3360 84 33 453 F3337.Cap1b.(X3311)..F3337(X3323)82 1 454 3359 84 33 4
39 F3337.Cap1t.(X3311)..F3337(X3313)82 1 440 3357 17 259 0 265 223 219 250 266 3
51 0 300 +17 223 0 265 221 259 211 252 258 0 257 -17 266 0 378 345 300 202 259 3
51 0 218 -17 300 0 378 266 302 250 256 301 0 0 -15 378 105 0 345 377 0 17 302 0
 378 300 345 247 304 346 0 0 -17 345 0 378 302 266 244 218 342 0 0 +17 304 0 303
 290 249 244 302 346 0 345 +17 218 0 216 210 206 202 345 342 0 0 -17 206 0 216 2
18 217 244 290 13 0 304 +17 217 0 216 206 210 289 311 313 0 0 +17 311 0 310 299
 307 14 217 313 0 0 -17 221 0 265 219 223 14 299 316 0 311 -81 2 426 3 25 315 0
 0 0 398 455 456 81 2 398 11 25 394 0 0 426 390 457 458 84 19 455 F3337.Cap1t.(X
3311)82 1 456 3340 81 2 390 14 25 388 0 0 398 387 459 460 84 33 457 F3337.Cap1t.
(X3311)..F3337(X3323)82 1 458 3350 84 33 459 F3337.Cap1t.(X3311)..F3337(X3322)82
 1 460 3351 81 2 406 229 25 380 0 0 422 405 461 462 84 12 424 F3337(X3313)82 1 4
25 3343 84 12 461 F3337(X3321)82 1 462 3347 81 2 193 245 25 2 463 4 360 400 464
 0 84 12 420 F3337(X3319)82 1 421 6054 81 1 463 69 188 2 0 193 0 0 465 81 2 360
 243 25 322 0 0 362 193 466 467 84 7 464 F3337.B81 2 362 242 25 361 0 0 364 360
 468 469 84 26 466 F3337(X3320)..F3337(X3321)82 1 467 3371 84 26 468 F3337(X3321
)..F3337(X3322)82 1 469 3372 82 1 465 55 81 2 205 236 25 13 0 0 411 305 470 471
 84 12 414 F3337(X6051)82 1 415 6053 81 2 305 237 25 207 0 0 205 357 472 473 84
 26 470 F3337(X3315)..F3337(X6051)82 1 471 6058 81 2 357 238 25 258 0 0 305 356
 474 475 84 26 472 F3337(X3314)..F3337(X3315)82 1 473 3368 81 2 356 239 25 220 0
 0 357 365 476 477 84 26 474 F3337(X3313)..F3337(X3314)82 1 475 3367 84 26 476 F
3337(X3313)..F3337(X6051)82 1 477 6057 84 12 408 F3337(X3322)82 1 409 3348 81 2
 340 251 25 338 0 0 399 230 478 479 84 33 401 F3337.Cap1t.(X3311)..F3337(X3319)8
2 1 402 3353 81 2 230 252 25 228 0 0 340 246 480 481 84 33 478 F3337.Cap1b.(X331
1)..F3337(X3319)82 1 479 3362 81 2 246 253 25 244 0 0 230 260 482 483 84 10 480
 F3337.Vtx482 1 481 3386 84 10 482 F3337.Vtx582 1 483 3385 81 2 391 23 25 313 0
 0 387 312 484 485 81 2 312 26 25 308 0 0 391 317 486 487 84 33 484 F3337.Cap1t.
(X3311)..F3337(X6051)82 1 485 6055 84 33 486 F3337.Cap1t.(X3311)..F3337(X3315)82
 1 487 3355 84 33 392 F3337.Cap1t.(X3311)..F3337(X3321)82 1 393 3352 84 26 368 F
3337(X3323)..F3337(X3319)82 1 369 6059 84 26 366 F3337(X3322)..F3337(X3323)82 1
 367 3373 84 33 320 F3337.Cap1t.(X3311)..F3337(X3314)82 1 321 3356 81 2 222 261
 25 211 0 0 251 291 488 489 81 2 287 263 25 285 0 0 291 283 490 491 84 11 293 F3
337.Vtx1082 1 294 3376 81 2 283 264 25 279 0 0 287 270 492 493 84 11 490 F3337.V
tx1382 1 491 3379 81 2 270 265 25 268 0 0 283 213 494 495 84 11 492 F3337.Vtx148
2 1 493 3380 84 11 494 F3337.Vtx1582 1 495 3381 84 10 488 F3337.Vtx982 1 489 337
5 81 2 262 255 25 289 0 0 260 234 496 497 81 2 234 256 25 232 0 0 262 238 498 49
9 84 11 496 F3337.Vtx1182 1 497 3377 81 2 238 257 25 236 0 0 234 242 500 501 84
 10 498 F3337.Vtx182 1 499 3389 81 2 242 258 25 240 0 0 238 248 502 503 84 10 50
0 F3337.Vtx282 1 501 3388 81 2 248 259 25 247 0 0 242 251 504 505 84 10 502 F333
7.Vtx382 1 503 3387 84 10 504 F3337.Vtx682 1 505 3384 84 11 271 F3337.Vtx1682 1
 272 3378 84 10 263 F3337.Vtx882 1 264 3382 84 10 253 F3337.Vtx782 1 254 3383 84
 11 214 F3337.Vtx1282 1 215 3374 19 197 216 0 2 0 12 8 S0 74 20 195 3 0 0 209 46
3 4 0 0 0 0 0 0 0 0 0 0 0 0 0 0 0 0 0 80 1 192 506 507 8017 0 0 0 0 0 0 0 0 0 TT
TTTTTTTTTTTF3 84 5 194 Fluid79 13 507 SDL/TYSA_NAME1 0 
